<?xml version="1.0" encoding="iso-8859-1"?>
<!-- Generator: Adobe Illustrator 19.0.0, SVG Export Plug-In . SVG Version: 6.00 Build 0)  -->
<svg version="1.1" id="Capa_1" xmlns="http://www.w3.org/2000/svg" xmlns:xlink="http://www.w3.org/1999/xlink" x="0px" y="0px"
	 viewBox="0 0 512 512" style="enable-background:new 0 0 512 512;" xml:space="preserve">
<polygon style="fill:#F0C419;" points="176.552,441.379 335.448,494.345 335.448,70.621 176.552,17.655 "/>
<g>
	<polygon style="fill:#F29C1F;" points="176.552,441.379 0,494.345 0,70.621 176.552,17.655 	"/>
	<polygon style="fill:#F29C1F;" points="512,441.379 335.448,494.345 335.448,70.621 512,17.655 	"/>
</g>
<g>
	<path style="fill:#FFFFFF;" d="M70.621,414.897c-4.873,0-8.828-3.946-8.828-8.828c0-6.4,0.53-12.8,1.571-19.041
		c0.803-4.802,5.35-8.086,10.161-7.247c4.811,0.803,8.06,5.35,7.256,10.161c-0.883,5.279-1.333,10.708-1.333,16.128
		C79.448,410.951,75.494,414.897,70.621,414.897z"/>
	<path style="fill:#FFFFFF;" d="M84.03,363.22c-1.457,0-2.94-0.362-4.299-1.121c-4.255-2.383-5.773-7.759-3.399-12.014
		c6.418-11.476,14.698-21.689,24.602-30.376c3.672-3.213,9.251-2.851,12.456,0.821c3.213,3.663,2.851,9.242-0.821,12.456
		c-8.395,7.353-15.404,16.004-20.833,25.724C90.121,361.596,87.119,363.22,84.03,363.22z M279.287,325.411
		c-4.476,0-8.316-3.399-8.775-7.945c-0.486-4.846,3.046-9.172,7.901-9.666c3.116-0.309,6.153-0.953,9.039-1.924
		c7.115-2.357,13.647-5.809,19.43-10.284c3.858-2.975,9.401-2.269,12.385,1.58c2.984,3.866,2.278,9.401-1.58,12.385
		c-7.362,5.703-15.669,10.099-24.664,13.074c-4.105,1.368-8.422,2.286-12.835,2.737
		C279.879,325.394,279.578,325.411,279.287,325.411z M244.109,318.438c-1.262,0-2.542-0.274-3.769-0.865
		c-8.201-3.964-18.944-6.629-32.106-7.98c-4.846-0.512-8.377-4.846-7.874-9.693c0.503-4.855,4.882-8.245,9.684-7.883
		c15.219,1.58,27.93,4.793,37.791,9.569c4.387,2.127,6.303,7.433,4.184,11.82C250.5,316.575,247.375,318.438,244.109,318.438z
		 M137.56,316.363c-3.513,0-6.841-2.11-8.21-5.588c-1.792-4.537,0.433-9.657,4.961-11.449c12.191-4.82,25.07-7.495,38.276-7.945
		c4.873-0.441,8.96,3.637,9.128,8.519c0.168,4.873-3.646,8.96-8.519,9.119c-11.193,0.388-22.095,2.657-32.397,6.727
		C139.732,316.16,138.637,316.363,137.56,316.363z M340.807,289.121c-3.019,0-5.967-1.554-7.609-4.334
		c-2.481-4.202-1.086-9.613,3.116-12.094c8.625-5.085,17.788-9.119,27.242-11.979c2.516-0.759,4.988-1.615,7.406-2.569
		c4.529-1.774,9.657,0.433,11.449,4.97c1.792,4.537-0.441,9.666-4.97,11.458c-2.869,1.13-5.791,2.136-8.775,3.037
		c-8.095,2.454-15.969,5.914-23.375,10.293C343.879,288.724,342.334,289.121,340.807,289.121z M405.054,256.441
		c-2.463,0-4.917-1.024-6.656-3.028c-3.204-3.681-2.816-9.251,0.856-12.456c8.413-7.327,15.439-15.969,20.895-25.662
		c2.383-4.246,7.768-5.756,12.023-3.372c4.246,2.392,5.756,7.777,3.363,12.023c-6.444,11.467-14.751,21.663-24.682,30.323
		C409.176,255.726,407.111,256.441,405.054,256.441z"/>
	<path style="fill:#FFFFFF;" d="M439.94,194.145c-0.486,0-0.971-0.035-1.465-0.124c-4.811-0.803-8.06-5.35-7.256-10.152
		c0.883-5.297,1.333-10.726,1.333-16.146c0-4.882,3.955-8.828,8.828-8.828s8.828,3.946,8.828,8.828c0,6.391-0.53,12.8-1.571,19.041
		C447.912,191.082,444.178,194.145,439.94,194.145z"/>
</g>
<path style="fill:#805333;" d="M432.552,432.552c-4.873,0-8.828-3.946-8.828-8.828v-44.138c0-4.882,3.955-8.828,8.828-8.828
	s8.828,3.946,8.828,8.828v44.138C441.379,428.606,437.425,432.552,432.552,432.552z"/>
<path style="fill:#24AE5F;" d="M280.964,201.516L280.964,201.516c-13.789,13.789-36.149,13.789-49.938,0l0,0
	c-13.789-13.789-13.789-36.149,0-49.938L256,123.586l24.964,28.001C294.762,165.376,294.762,187.727,280.964,201.516z"/>
<g>
	<path style="fill:#E64C3C;" d="M52.966,273.655c-2.26,0-4.52-0.865-6.241-2.586c-3.452-3.452-3.452-9.031,0-12.482l52.966-52.966
		c3.443-3.452,9.039-3.452,12.482,0c3.452,3.452,3.452,9.031,0,12.482l-52.966,52.966C57.485,272.79,55.225,273.655,52.966,273.655z
		"/>
	<path style="fill:#E64C3C;" d="M105.931,273.655c-2.26,0-4.52-0.865-6.241-2.586l-52.966-52.966c-3.452-3.452-3.452-9.031,0-12.482
		c3.443-3.452,9.039-3.452,12.482,0l52.966,52.966c3.452,3.452,3.452,9.031,0,12.482
		C110.451,272.79,108.191,273.655,105.931,273.655z"/>
</g>
<path style="fill:#24AE5F;" d="M457.516,369.24L457.516,369.24c-13.789,13.789-36.149,13.789-49.938,0l0,0
	c-13.789-13.789-13.789-36.149,0-49.938l24.973-27.992l24.964,28.001C471.314,333.1,471.314,355.452,457.516,369.24z"/>
<g>
</g>
<g>
</g>
<g>
</g>
<g>
</g>
<g>
</g>
<g>
</g>
<g>
</g>
<g>
</g>
<g>
</g>
<g>
</g>
<g>
</g>
<g>
</g>
<g>
</g>
<g>
</g>
<g>
</g>
</svg>
